{
  "accessors": [
    {
      "bufferView": 2,
      "componentType": 5126,
      "count": 791,
      "max": [
        4.22828483581543,
        -5.370306968688965,
        4.973637104034424
      ],
      "min": [
        -4.290204048156738,
        -15.0420503616333,
        1.8780779838562012
      ],
      "type": "VEC3"
    },
    {
      "bufferView": 2,
      "byteOffset": 9492,
      "componentType": 5126,
      "count": 791,
      "max": [
        1.0,
        1.0,
        1.0
      ],
      "min": [
        -1.0,
        -1.0,
        -1.0
      ],
      "type": "VEC3"
    },
    {
      "bufferView": 1,
      "componentType": 5126,
      "count": 791,
      "max": [
        0.8392860293388367,
        0.642857015132904
      ],
      "min": [
        0.16071400046348572,
        0.10714299976825714
      ],
      "type": "VEC2"
    },
    {
      "bufferView": 0,
      "componentType": 5125,
      "count": 1746,
      "type": "SCALAR"
    },
    {
      "bufferView": 2,
      "byteOffset": 18984,
      "componentType": 5126,
      "count": 553,
      "max": [
        3.0349690914154053,
        -5.370306968688965,
        5.463840961456299
      ],
      "min": [
        -3.053981065750122,
        -14.366192817687988,
        -0.5921919941902161
      ],
      "type": "VEC3"
    },
    {
      "bufferView": 2,
      "byteOffset": 25620,
      "componentType": 5126,
      "count": 553,
      "max": [
        1.0,
        1.0,
        1.0
      ],
      "min": [
        -1.0,
        -1.0,
        -1.0
      ],
      "type": "VEC3"
    },
    {
      "bufferView": 1,
      "byteOffset": 6328,
      "componentType": 5126,
      "count": 553,
      "max": [
        0.875,
        1.0
      ],
      "min": [
        0.125,
        0.0
      ],
      "type": "VEC2"
    },
    {
      "bufferView": 0,
      "byteOffset": 6984,
      "componentType": 5125,
      "count": 2046,
      "type": "SCALAR"
    }
  ],
  "asset": {
    "extras": {
      "author": "tori1243 (https://sketchfab.com/tori1243)",
      "license": "CC-BY-4.0 (http://creativecommons.org/licenses/by/4.0/)",
      "source": "https://sketchfab.com/3d-models/simple-house-52f15c2c1c45427089c996963f8a0c51",
      "title": "Simple House"
    },
    "generator": "Sketchfab-12.67.0",
    "version": "2.0"
  },
  "bufferViews": [
    {
      "buffer": 0,
      "byteLength": 15168,
      "name": "floatBufferViews",
      "target": 34963
    },
    {
      "buffer": 0,
      "byteLength": 10752,
      "byteOffset": 15168,
      "byteStride": 8,
      "name": "floatBufferViews",
      "target": 34962
    },
    {
      "buffer": 0,
      "byteLength": 32256,
      "byteOffset": 25920,
      "byteStride": 12,
      "name": "floatBufferViews",
      "target": 34962
    }
  ],
  "buffers": [
    {
      "byteLength": 58176,
      "uri": "scene.bin"
    }
  ],
  "materials": [
    {
      "doubleSided": true,
      "name": "initialShadingGroup",
      "pbrMetallicRoughness": {
        "metallicFactor": 0.0,
        "roughnessFactor": 0.6
      }
    }
  ],
  "meshes": [
    {
      "name": "Object_0",
      "primitives": [
        {
          "attributes": {
            "NORMAL": 1,
            "POSITION": 0,
            "TEXCOORD_0": 2
          },
          "indices": 3,
          "material": 0,
          "mode": 4
        }
      ]
    },
    {
      "name": "Object_1",
      "primitives": [
        {
          "attributes": {
            "NORMAL": 5,
            "POSITION": 4,
            "TEXCOORD_0": 6
          },
          "indices": 7,
          "material": 0,
          "mode": 4
        }
      ]
    }
  ],
  "nodes": [
    {
      "children": [
        1
      ],
      "matrix": [
        1.0,
        0.0,
        0.0,
        0.0,
        0.0,
        2.220446049250313e-16,
        -1.0,
        0.0,
        0.0,
        1.0,
        2.220446049250313e-16,
        0.0,
        0.0,
        0.0,
        0.0,
        1.0
      ],
      "name": "Sketchfab_model"
    },
    {
      "children": [
        2,
        3
      ],
      "name": "14f90fea6fb94c2fb407d1255094f749.obj.cleaner.materialmerger.gles"
    },
    {
      "mesh": 0,
      "name": "Object_2"
    },
    {
      "mesh": 1,
      "name": "Object_3"
    }
  ],
  "scene": 0,
  "scenes": [
    {
      "name": "Sketchfab_Scene",
      "nodes": [
        0
      ]
    }
  ]
}
